<svg xmlns="http://www.w3.org/2000/svg" xmlns:xlink="http://www.w3.org/1999/xlink" width="120" zoomAndPan="magnify" viewBox="0 0 90 89.999999" height="120" preserveAspectRatio="xMidYMid meet" version="1.0"><defs><g/></defs><g fill="#ffffff" fill-opacity="1"><g transform="translate(6.78589, 53.999999)"><g><path d="M 6.96875 0.34375 C 5.988281 0.34375 4.9375 0.210938 3.8125 -0.046875 C 2.695312 -0.316406 1.828125 -0.609375 1.203125 -0.921875 L 1.5625 -4.3125 C 3.757812 -3.25 5.6875 -2.71875 7.34375 -2.71875 C 8.226562 -2.71875 8.914062 -2.882812 9.40625 -3.21875 C 9.90625 -3.5625 10.15625 -4.066406 10.15625 -4.734375 C 10.15625 -5.234375 10.019531 -5.644531 9.75 -5.96875 C 9.476562 -6.289062 9.082031 -6.5625 8.5625 -6.78125 C 8.050781 -7.007812 7.234375 -7.320312 6.109375 -7.71875 C 5.046875 -8.082031 4.164062 -8.46875 3.46875 -8.875 C 2.769531 -9.28125 2.21875 -9.800781 1.8125 -10.4375 C 1.40625 -11.082031 1.203125 -11.867188 1.203125 -12.796875 C 1.203125 -14.296875 1.75 -15.5 2.84375 -16.40625 C 3.9375 -17.320312 5.503906 -17.78125 7.546875 -17.78125 C 8.503906 -17.78125 9.460938 -17.671875 10.421875 -17.453125 C 11.378906 -17.242188 12.253906 -16.976562 13.046875 -16.65625 L 12.734375 -13.40625 C 11.703125 -13.851562 10.757812 -14.1875 9.90625 -14.40625 C 9.050781 -14.632812 8.195312 -14.75 7.34375 -14.75 C 6.394531 -14.75 5.671875 -14.585938 5.171875 -14.265625 C 4.679688 -13.953125 4.4375 -13.5 4.4375 -12.90625 C 4.4375 -12.4375 4.566406 -12.050781 4.828125 -11.75 C 5.097656 -11.457031 5.457031 -11.207031 5.90625 -11 C 6.363281 -10.800781 7.039062 -10.5625 7.9375 -10.28125 C 9.945312 -9.65625 11.410156 -8.929688 12.328125 -8.109375 C 13.253906 -7.285156 13.71875 -6.160156 13.71875 -4.734375 C 13.71875 -3.367188 13.242188 -2.179688 12.296875 -1.171875 C 11.359375 -0.160156 9.582031 0.34375 6.96875 0.34375 Z M 6.96875 0.34375 "/></g></g></g><g fill="#ffffff" fill-opacity="1"><g transform="translate(21.247311, 53.999999)"><g><path d="M 7.9375 -12.65625 C 9.125 -12.65625 10.140625 -12.363281 10.984375 -11.78125 C 11.828125 -11.195312 12.460938 -10.414062 12.890625 -9.4375 C 13.328125 -8.457031 13.546875 -7.378906 13.546875 -6.203125 C 13.546875 -5.023438 13.328125 -3.945312 12.890625 -2.96875 C 12.460938 -1.988281 11.828125 -1.207031 10.984375 -0.625 C 10.140625 -0.0390625 9.125 0.25 7.9375 0.25 C 7.195312 0.25 6.5625 0.171875 6.03125 0.015625 C 5.507812 -0.140625 5.007812 -0.394531 4.53125 -0.75 L 4.53125 6.03125 L 1.4375 6.03125 L 1.4375 -12.453125 L 3.9375 -12.453125 L 4.265625 -11.3125 C 4.796875 -11.757812 5.347656 -12.09375 5.921875 -12.3125 C 6.503906 -12.539062 7.175781 -12.65625 7.9375 -12.65625 Z M 7.46875 -2.296875 C 8.382812 -2.296875 9.097656 -2.648438 9.609375 -3.359375 C 10.128906 -4.078125 10.390625 -5.023438 10.390625 -6.203125 C 10.390625 -7.378906 10.128906 -8.320312 9.609375 -9.03125 C 9.097656 -9.75 8.382812 -10.109375 7.46875 -10.109375 C 6.4375 -10.109375 5.664062 -9.757812 5.15625 -9.0625 C 4.644531 -8.363281 4.390625 -7.410156 4.390625 -6.203125 C 4.390625 -4.992188 4.644531 -4.039062 5.15625 -3.34375 C 5.664062 -2.644531 6.4375 -2.296875 7.46875 -2.296875 Z M 7.46875 -2.296875 "/></g></g></g><g fill="#ffffff" fill-opacity="1"><g transform="translate(35.509604, 53.999999)"><g><path d="M 1.4375 -12.453125 L 4.328125 -12.453125 L 4.40625 -11.140625 C 4.769531 -11.546875 5.238281 -11.90625 5.8125 -12.21875 C 6.382812 -12.539062 6.988281 -12.703125 7.625 -12.703125 C 7.820312 -12.703125 8.003906 -12.6875 8.171875 -12.65625 L 7.9375 -9.609375 C 7.625 -9.691406 7.269531 -9.734375 6.875 -9.734375 C 6.363281 -9.734375 5.890625 -9.613281 5.453125 -9.375 C 5.023438 -9.132812 4.71875 -8.84375 4.53125 -8.5 L 4.53125 0 L 1.4375 0 Z M 1.4375 -12.453125 "/></g></g></g><g fill="#ffffff" fill-opacity="1"><g transform="translate(43.748391, 53.999999)"><g><path d="M 7.453125 0.25 C 6.003906 0.25 4.769531 -0.0390625 3.75 -0.625 C 2.726562 -1.21875 1.960938 -2.007812 1.453125 -3 C 0.953125 -3.988281 0.703125 -5.085938 0.703125 -6.296875 C 0.703125 -7.460938 0.941406 -8.523438 1.421875 -9.484375 C 1.898438 -10.453125 2.59375 -11.222656 3.5 -11.796875 C 4.414062 -12.367188 5.507812 -12.65625 6.78125 -12.65625 C 7.9375 -12.65625 8.914062 -12.410156 9.71875 -11.921875 C 10.53125 -11.441406 11.140625 -10.796875 11.546875 -9.984375 C 11.953125 -9.171875 12.15625 -8.257812 12.15625 -7.25 C 12.15625 -6.75 12.085938 -6.179688 11.953125 -5.546875 L 3.90625 -5.546875 C 4.070312 -4.453125 4.503906 -3.632812 5.203125 -3.09375 C 5.898438 -2.5625 6.738281 -2.296875 7.71875 -2.296875 C 9.0625 -2.296875 10.304688 -2.632812 11.453125 -3.3125 L 11.609375 -0.703125 C 11.078125 -0.421875 10.457031 -0.191406 9.75 -0.015625 C 9.039062 0.160156 8.273438 0.25 7.453125 0.25 Z M 9.015625 -7.640625 C 9.015625 -8.296875 8.832031 -8.867188 8.46875 -9.359375 C 8.101562 -9.859375 7.539062 -10.109375 6.78125 -10.109375 C 6.007812 -10.109375 5.390625 -9.882812 4.921875 -9.4375 C 4.460938 -8.988281 4.148438 -8.390625 3.984375 -7.640625 Z M 9.015625 -7.640625 "/></g></g></g><g fill="#ffffff" fill-opacity="1"><g transform="translate(56.591926, 53.999999)"><g><path d="M 4.140625 0.25 C 3.109375 0.25 2.242188 -0.0820312 1.546875 -0.75 C 0.859375 -1.425781 0.515625 -2.335938 0.515625 -3.484375 C 0.515625 -4.566406 0.90625 -5.4375 1.6875 -6.09375 C 2.46875 -6.75 3.390625 -7.210938 4.453125 -7.484375 C 5.515625 -7.753906 6.535156 -7.90625 7.515625 -7.9375 C 7.484375 -8.675781 7.296875 -9.203125 6.953125 -9.515625 C 6.617188 -9.828125 6.0625 -9.984375 5.28125 -9.984375 C 4.726562 -9.984375 4.191406 -9.90625 3.671875 -9.75 C 3.148438 -9.601562 2.550781 -9.367188 1.875 -9.046875 L 1.59375 -11.5625 C 3.101562 -12.289062 4.613281 -12.65625 6.125 -12.65625 C 7.582031 -12.65625 8.695312 -12.253906 9.46875 -11.453125 C 10.25 -10.660156 10.640625 -9.390625 10.640625 -7.640625 L 10.640625 -4.28125 C 10.640625 -3.65625 10.664062 -3.203125 10.71875 -2.921875 C 10.78125 -2.648438 10.878906 -2.476562 11.015625 -2.40625 C 11.160156 -2.332031 11.398438 -2.296875 11.734375 -2.296875 L 12.125 -2.296875 L 11.859375 0.25 L 10.734375 0.25 C 10.054688 0.25 9.484375 0.125 9.015625 -0.125 C 8.546875 -0.382812 8.1875 -0.742188 7.9375 -1.203125 C 7.539062 -0.742188 7 -0.382812 6.3125 -0.125 C 5.625 0.125 4.898438 0.25 4.140625 0.25 Z M 5.421875 -2.109375 C 5.742188 -2.109375 6.101562 -2.1875 6.5 -2.34375 C 6.894531 -2.507812 7.242188 -2.734375 7.546875 -3.015625 L 7.546875 -5.859375 C 6.546875 -5.804688 5.664062 -5.585938 4.90625 -5.203125 C 4.144531 -4.816406 3.765625 -4.285156 3.765625 -3.609375 C 3.765625 -3.097656 3.894531 -2.71875 4.15625 -2.46875 C 4.425781 -2.226562 4.847656 -2.109375 5.421875 -2.109375 Z M 5.421875 -2.109375 "/></g></g></g><g fill="#ffffff" fill-opacity="1"><g transform="translate(69.012312, 53.999999)"><g><path d="M 12.796875 -18.671875 L 12.796875 0 L 9.890625 0 L 9.84375 -0.796875 C 9.351562 -0.453125 8.847656 -0.191406 8.328125 -0.015625 C 7.804688 0.160156 7.1875 0.25 6.46875 0.25 C 5.257812 0.25 4.21875 -0.0390625 3.34375 -0.625 C 2.476562 -1.207031 1.820312 -1.988281 1.375 -2.96875 C 0.925781 -3.945312 0.703125 -5.023438 0.703125 -6.203125 C 0.703125 -7.378906 0.925781 -8.457031 1.375 -9.4375 C 1.820312 -10.414062 2.476562 -11.195312 3.34375 -11.78125 C 4.21875 -12.363281 5.257812 -12.65625 6.46875 -12.65625 C 7.6875 -12.65625 8.769531 -12.320312 9.71875 -11.65625 L 9.71875 -18.671875 Z M 6.921875 -2.296875 C 7.898438 -2.296875 8.632812 -2.644531 9.125 -3.34375 C 9.613281 -4.039062 9.859375 -4.992188 9.859375 -6.203125 C 9.859375 -7.410156 9.613281 -8.363281 9.125 -9.0625 C 8.632812 -9.757812 7.898438 -10.109375 6.921875 -10.109375 C 5.960938 -10.109375 5.210938 -9.75 4.671875 -9.03125 C 4.128906 -8.320312 3.859375 -7.378906 3.859375 -6.203125 C 3.859375 -5.023438 4.128906 -4.078125 4.671875 -3.359375 C 5.210938 -2.648438 5.960938 -2.296875 6.921875 -2.296875 Z M 6.921875 -2.296875 "/></g></g></g></svg>