<svg xmlns="http://www.w3.org/2000/svg" xmlns:xlink="http://www.w3.org/1999/xlink" width="1080" zoomAndPan="magnify" viewBox="0 0 810 179.999997" height="240" preserveAspectRatio="xMidYMid meet" version="1.0"><defs><g/></defs><g fill="#fd8033" fill-opacity="1"><g transform="translate(133.651194, 136.592416)"><g><path d="M 49.484375 2.46875 C 42.535156 2.46875 35.082031 1.523438 27.125 -0.359375 C 19.175781 -2.242188 12.960938 -4.300781 8.484375 -6.53125 L 11.140625 -30.578125 C 26.679688 -23.035156 40.34375 -19.265625 52.125 -19.265625 C 58.375 -19.265625 63.265625 -20.46875 66.796875 -22.875 C 70.328125 -25.289062 72.09375 -28.859375 72.09375 -33.578125 C 72.09375 -37.109375 71.117188 -40.019531 69.171875 -42.3125 C 67.234375 -44.613281 64.4375 -46.5625 60.78125 -48.15625 C 57.132812 -49.75 51.304688 -51.957031 43.296875 -54.78125 C 35.753906 -57.375 29.507812 -60.113281 24.5625 -63 C 19.613281 -65.882812 15.695312 -69.59375 12.8125 -74.125 C 9.925781 -78.664062 8.484375 -84.234375 8.484375 -90.828125 C 8.484375 -101.429688 12.367188 -109.972656 20.140625 -116.453125 C 27.921875 -122.929688 39.054688 -126.171875 53.546875 -126.171875 C 60.378906 -126.171875 67.179688 -125.40625 73.953125 -123.875 C 80.734375 -122.34375 86.945312 -120.457031 92.59375 -118.21875 L 90.296875 -95.078125 C 82.992188 -98.253906 76.304688 -100.640625 70.234375 -102.234375 C 64.171875 -103.828125 58.132812 -104.625 52.125 -104.625 C 45.414062 -104.625 40.289062 -103.503906 36.75 -101.265625 C 33.21875 -99.023438 31.453125 -95.785156 31.453125 -91.546875 C 31.453125 -88.242188 32.394531 -85.53125 34.28125 -83.40625 C 36.164062 -81.289062 38.726562 -79.523438 41.96875 -78.109375 C 45.207031 -76.691406 50.007812 -74.984375 56.375 -72.984375 C 70.625 -68.503906 81.019531 -63.347656 87.5625 -57.515625 C 94.101562 -51.691406 97.375 -43.710938 97.375 -33.578125 C 97.375 -23.910156 94.015625 -15.484375 87.296875 -8.296875 C 80.578125 -1.117188 67.972656 2.46875 49.484375 2.46875 Z M 49.484375 2.46875 "/></g></g></g><g fill="#fd8033" fill-opacity="1"><g transform="translate(236.324799, 136.592416)"><g><path d="M 56.375 -89.765625 C 64.738281 -89.765625 71.925781 -87.703125 77.9375 -83.578125 C 83.945312 -79.460938 88.484375 -73.925781 91.546875 -66.96875 C 94.609375 -60.019531 96.140625 -52.363281 96.140625 -44 C 96.140625 -35.632812 94.609375 -27.976562 91.546875 -21.03125 C 88.484375 -14.082031 83.945312 -8.546875 77.9375 -4.421875 C 71.925781 -0.296875 64.738281 1.765625 56.375 1.765625 C 51.070312 1.765625 46.5625 1.203125 42.84375 0.078125 C 39.132812 -1.035156 35.570312 -2.828125 32.15625 -5.296875 L 32.15625 42.765625 L 10.25 42.765625 L 10.25 -88.359375 L 27.921875 -88.359375 L 30.21875 -80.234375 C 33.988281 -83.410156 37.9375 -85.789062 42.0625 -87.375 C 46.1875 -88.96875 50.957031 -89.765625 56.375 -89.765625 Z M 53.015625 -16.265625 C 59.492188 -16.265625 64.554688 -18.796875 68.203125 -23.859375 C 71.859375 -28.921875 73.6875 -35.632812 73.6875 -44 C 73.6875 -52.363281 71.859375 -59.078125 68.203125 -64.140625 C 64.554688 -69.210938 59.492188 -71.75 53.015625 -71.75 C 45.710938 -71.75 40.234375 -69.273438 36.578125 -64.328125 C 32.929688 -59.378906 31.109375 -52.601562 31.109375 -44 C 31.109375 -35.40625 32.929688 -28.632812 36.578125 -23.6875 C 40.234375 -18.738281 45.710938 -16.265625 53.015625 -16.265625 Z M 53.015625 -16.265625 "/></g></g></g><g fill="#fd8033" fill-opacity="1"><g transform="translate(337.584647, 136.592416)"><g><path d="M 10.25 -88.359375 L 30.75 -88.359375 L 31.28125 -79 C 33.875 -81.9375 37.203125 -84.523438 41.265625 -86.765625 C 45.328125 -89.003906 49.597656 -90.125 54.078125 -90.125 C 55.492188 -90.125 56.789062 -90.003906 57.96875 -89.765625 L 56.375 -68.21875 C 54.132812 -68.800781 51.601562 -69.09375 48.78125 -69.09375 C 45.125 -69.09375 41.765625 -68.238281 38.703125 -66.53125 C 35.640625 -64.820312 33.457031 -62.734375 32.15625 -60.265625 L 32.15625 0 L 10.25 0 Z M 10.25 -88.359375 "/></g></g></g><g fill="#fd8033" fill-opacity="1"><g transform="translate(396.078555, 136.592416)"><g><path d="M 52.84375 1.765625 C 42.59375 1.765625 33.84375 -0.320312 26.59375 -4.5 C 19.351562 -8.6875 13.9375 -14.285156 10.34375 -21.296875 C 6.75 -28.304688 4.953125 -36.109375 4.953125 -44.703125 C 4.953125 -52.953125 6.660156 -60.492188 10.078125 -67.328125 C 13.492188 -74.160156 18.441406 -79.609375 24.921875 -83.671875 C 31.398438 -87.734375 39.113281 -89.765625 48.0625 -89.765625 C 56.3125 -89.765625 63.289062 -88.054688 69 -84.640625 C 74.71875 -81.222656 79.019531 -76.628906 81.90625 -70.859375 C 84.789062 -65.085938 86.234375 -58.609375 86.234375 -51.421875 C 86.234375 -47.890625 85.765625 -43.882812 84.828125 -39.40625 L 27.75 -39.40625 C 28.925781 -31.632812 31.988281 -25.832031 36.9375 -22 C 41.882812 -18.175781 47.832031 -16.265625 54.78125 -16.265625 C 64.320312 -16.265625 73.160156 -18.675781 81.296875 -23.5 L 82.34375 -4.953125 C 78.582031 -2.941406 74.195312 -1.316406 69.1875 -0.078125 C 64.175781 1.148438 58.726562 1.765625 52.84375 1.765625 Z M 63.96875 -54.25 C 63.96875 -58.84375 62.671875 -62.90625 60.078125 -66.4375 C 57.492188 -69.976562 53.488281 -71.75 48.0625 -71.75 C 42.644531 -71.75 38.285156 -70.15625 34.984375 -66.96875 C 31.691406 -63.789062 29.457031 -59.550781 28.28125 -54.25 Z M 63.96875 -54.25 "/></g></g></g><g fill="#fd8033" fill-opacity="1"><g transform="translate(487.265439, 136.592416)"><g><path d="M 29.328125 1.765625 C 22.023438 1.765625 15.929688 -0.617188 11.046875 -5.390625 C 6.160156 -10.160156 3.71875 -16.609375 3.71875 -24.734375 C 3.71875 -32.398438 6.484375 -38.554688 12.015625 -43.203125 C 17.554688 -47.859375 24.09375 -51.15625 31.625 -53.09375 C 39.164062 -55.039062 46.414062 -56.132812 53.375 -56.375 C 53.132812 -61.5625 51.804688 -65.269531 49.390625 -67.5 C 46.972656 -69.738281 43 -70.859375 37.46875 -70.859375 C 33.570312 -70.859375 29.769531 -70.328125 26.0625 -69.265625 C 22.351562 -68.210938 18.082031 -66.507812 13.25 -64.15625 L 11.3125 -82 C 22.03125 -87.175781 32.75 -89.765625 43.46875 -89.765625 C 53.84375 -89.765625 61.765625 -86.9375 67.234375 -81.28125 C 72.710938 -75.632812 75.453125 -66.625 75.453125 -54.25 L 75.453125 -30.390625 C 75.453125 -25.921875 75.660156 -22.710938 76.078125 -20.765625 C 76.492188 -18.816406 77.203125 -17.578125 78.203125 -17.046875 C 79.203125 -16.523438 80.878906 -16.265625 83.234375 -16.265625 L 86.0625 -16.265625 L 84.125 1.765625 L 76.171875 1.765625 C 71.335938 1.765625 67.269531 0.851562 63.96875 -0.96875 C 60.675781 -2.800781 58.144531 -5.304688 56.375 -8.484375 C 53.539062 -5.304688 49.679688 -2.800781 44.796875 -0.96875 C 39.910156 0.851562 34.753906 1.765625 29.328125 1.765625 Z M 38.53125 -15.015625 C 40.757812 -15.015625 43.285156 -15.570312 46.109375 -16.6875 C 48.941406 -17.8125 51.421875 -19.378906 53.546875 -21.390625 L 53.546875 -41.53125 C 46.472656 -41.175781 40.226562 -39.644531 34.8125 -36.9375 C 29.394531 -34.226562 26.6875 -30.457031 26.6875 -25.625 C 26.6875 -21.96875 27.628906 -19.285156 29.515625 -17.578125 C 31.398438 -15.867188 34.40625 -15.015625 38.53125 -15.015625 Z M 38.53125 -15.015625 "/></g></g></g><g fill="#fd8033" fill-opacity="1"><g transform="translate(575.448089, 136.592416)"><g><path d="M 90.828125 -132.53125 L 90.828125 0 L 70.15625 0 L 69.796875 -5.65625 C 66.378906 -3.175781 62.816406 -1.316406 59.109375 -0.078125 C 55.398438 1.148438 51.015625 1.765625 45.953125 1.765625 C 37.347656 1.765625 29.953125 -0.296875 23.765625 -4.421875 C 17.578125 -8.546875 12.894531 -14.082031 9.71875 -21.03125 C 6.539062 -27.976562 4.953125 -35.632812 4.953125 -44 C 4.953125 -52.363281 6.539062 -60.019531 9.71875 -66.96875 C 12.894531 -73.925781 17.578125 -79.460938 23.765625 -83.578125 C 29.953125 -87.703125 37.347656 -89.765625 45.953125 -89.765625 C 54.546875 -89.765625 62.203125 -87.410156 68.921875 -82.703125 L 68.921875 -132.53125 Z M 49.125 -16.265625 C 56.070312 -16.265625 61.285156 -18.738281 64.765625 -23.6875 C 68.242188 -28.632812 69.984375 -35.40625 69.984375 -44 C 69.984375 -52.601562 68.242188 -59.378906 64.765625 -64.328125 C 61.285156 -69.273438 56.070312 -71.75 49.125 -71.75 C 42.289062 -71.75 36.957031 -69.210938 33.125 -64.140625 C 29.300781 -59.078125 27.390625 -52.363281 27.390625 -44 C 27.390625 -35.632812 29.300781 -28.921875 33.125 -23.859375 C 36.957031 -18.796875 42.289062 -16.265625 49.125 -16.265625 Z M 49.125 -16.265625 "/></g></g></g></svg>